<svg version="1.1" id="dwarfstar" xmlns="http://www.w3.org/2000/svg" xmlns:xlink="http://www.w3.org/1999/xlink" x="0px" y="0px"
	 viewBox="0 0 462 372" xml:space="preserve">
<path id="logo" d="M415,274.1c4.1-3.1,7.1-6.5,7.7-11c0.7-4.5-0.7-8.6-4-12.3c-3,5.9-8,8.9-13.9,8.2c3.4-3.3,3.9-7.2,3.8-11.3
	c-0.2-4.3,1.2-8.1,3.9-11.7c0.5-0.7,1-1.4,1.5-2.1c-0.1-0.1-0.2-0.3-0.3-0.4c-4.3,1.7-8.6,3.3-12.9,5.1c-4.3,1.8-8,4.3-11.5,7.8
	c0.2-0.7,0.2-1,0.3-1.2c1.6-4.4,5-7.5,9.3-10c5.9-3.4,8.5-8.2,7.6-14.4c-0.5-3.7-2.4-6.9-5.2-9.8c-2.2,6.3-9.2,8.3-14.2,8
	c12.6-9.3,9.9-22.8-1-28.1c-1.2,7-5.2,11.2-10.7,10.9c0.3-0.4,0.6-0.7,0.9-1c3.7-4.1,4.6-8.7,2.6-13.5c-1.5-3.7-1.7-7.3-0.1-11
	c0,0-0.1-0.1-0.2-0.3c-4.8,1.9-7.9,4.9-8.8,9.8c-2.4-2.1-3.7-4.5-2.9-7.1c0.7-2.4,2.2-4.7,3.6-6.9c2.9-4.2,3.1-9.7,0-13.8
	c-2.4,4.5-3.4,5.8-6.7,7.8c-4.3,2.6-8.1,5.5-9.2,10.2c-1.1-2.6-1.2-5.1,0-7.5c0.8-1.6,1.8-3.2,2.8-4.7c2.3-3.5,3.4-7.3,2.9-11.4
	c-1.1-8.1-6.2-13.9-13.7-18.4c-0.4-0.2-0.9-0.4-1.7-0.7c1.2,4.5,0.7,8.6-2.1,12.3c-2.8,3.6-6.6,5.9-12,6.8c3.5-4.6,5.3-9.2,4.5-14.3
	c-0.8-5-3.4-9.3-8-13.2c0,1.2,0,2,0,2.7c0,3.3-0.9,6.4-2.9,9.2c-0.9,1.3-2.2,2.5-3.6,3.4c-2.2,1.4-4.4,0.3-4.4-2
	c0-1.3,0.4-2.6,0.7-4c-5.2,0.9-9.4,3.2-13,6.7c0.4-1.8,0.8-3.6,1.7-5.1c1.4-2.5,3.1-4.8,4.6-7.3c1.9-3,3-6.3,3.1-9.7
	c0.2-8.8-4.9-14.8-13.6-18.7c-2.9-1.3-6-2.1-9.2-2.5c1.4,2.2,2.9,4.2,4,6.4c1.2,2.3,1.4,4.7,0.7,7.2c-0.7,2.4-1.6,4.6-3.8,6.5
	c-0.4-3-1.4-5.6-2.9-7.6l-3.2-65l-78.5-15.4l-30.3,21.2l-3.6,69.1c-0.8,0.3-1.7,0.5-2.8,0.2c-2.2-0.5-3-2-3.2-3.8
	c-0.2-1.4,0-2.8,0-4.3c-3.6,1.4-6.4,4.6-7.2,8.7c-0.5,2.9-0.5,5.9-0.8,8.9c-0.3,3-1.6,5.6-4,8.1c-0.4-10.4-11.3-18-23-16.2
	c0.5,0.5,0.9,0.9,1.4,1.3c3.2,2.9,5.3,6.2,5.4,10.3c0.1,7.1-3.2,12.9-8.8,17.9c-0.4,0.4-1,0.7-1.5,1.1c-1.4-5.4-4.3-8.8-8-9.4
	c0.6,2.5,0.7,5-0.4,7.4c-1.4,3-2.7,6-2.2,9.4c-4.7-0.7-8.9-4.8-9.5-9.1c-0.3-2.7,0.2-5.3,1.4-7.8c0.3-0.5,0.5-1.1,0.8-1.8
	c-7,1.8-12.5,5.7-15.6,11c-3.7,6.5-3.3,12.9,1.9,19c-5-0.1-9.3-1.3-13-3.9c-0.3,2.5,0.3,4.4,1.8,6.4c0.8,1.1,1.7,2,2.4,3.1
	c2.1,3.4,1.6,6.7-0.3,10.3c-2.1-4.9-7.3-10.2-11.4-11.6c-0.1,0.3-0.2,0.6-0.2,0.9c-0.9,5.4-0.4,10.6,2.3,15.6c1.2,2.3,2,4.7,1.3,7.3
	c-0.8,2.8-2.5,3.6-5.5,2.2c-3.6-1.6-5.6-4.4-6.5-7.7c-0.2-0.9-0.4-1.8-0.7-2.8c-4.8,3.8-6.9,8.3-6.3,13.6c0.3,3.1,1.8,5.9,3.6,8.6
	c1.7,2.5,2.5,5.2,1.8,8.5c-2.6-4-6.3-6-11.7-6.3c5.4,7.9,4.9,15.7,0.7,23.6c-4.8-1.2-7.6-4-9.1-8.1c-2.2,2.2-3,4.6-3.5,7.1
	c-1.4,8.4,2.5,15.2,9.2,21.4c-6.2,0.2-10.3-2-13.1-6.6c-4.3,8.6-1.2,15.4,5.5,21.7c-1.7,3.2-3.9,5.8-9.5,8.3h130.9v0h0.8l0,0h2.3
	l0.2-3.7l5.4,3.7h12.5l-17.5-11.9l0.2-5.2l25.1,17.1h12.5l-37.2-25.3l0.2-5.2l37.2,25.3v-8.5l-36.8-25l0.2-5.2l36.6,24.8v-8.5
	l-36.2-24.6l0.2-5.2l35.9,24.4v-8.5l-35.5-24.2l0.2-5.2l35.3,24v-8.5l-34.9-23.7l0.2-5.2l34.7,23.6v-8.5l-34.3-23.3l0.2-5.2l34,23.1
	v-8.5L174,176.8l0.2-5.2l33.4,22.7v-8.5l-33-22.5l0.2-5.2l32.8,22.3V172l-32.4-22l0.2-5.2l32.2,21.9v-8.5l-31.8-21.6l0.2-5.2
	l31.5,21.4v-8.5l-31.2-21.2l0.2-5.2l30.9,21v-8.5l-30.5-20.8l0.2-5.2l30.3,20.6v-8.5l-29.9-20.3l0.2-5.2l29.7,20.2v-8.5l-29.3-19.9
	l0.2-5.2l29,19.7V89L179,69.5l0.2-5.2l28.4,19.3v-8.5l-28-19l0.1-2.8l1.8-1.2l26.1,17.8v-8.5l-20-13.6l3.9-2.7l16.1,11v-8.5l-10-6.8
	l3.9-2.7l6.1,4.2v-8.5l0,0l75.6,14.6l11.1,234.4h132.7C420.9,280.9,417.4,278.8,415,274.1z"/>
<g id="logotipo">
	<path d="M32.5,341.3v-45.5h18.3c7.4,0,13.1,2.1,17.2,6.2c4.1,4.1,6.2,9.6,6.2,16.5S72.2,331,68,335.2c-4.1,4.1-9.8,6.1-17.2,6.1
		H32.5z M46.6,329h3.5c3.1,0,5.6-0.9,7.3-2.8c1.8-1.9,2.7-4.4,2.7-7.6c0-3.2-0.9-5.8-2.6-7.7c-1.8-1.9-4.2-2.8-7.3-2.8h-3.5V329z"/>
	<path d="M99.6,295.9h10.7l6,22.8l5.2-22.8h14.6l-12.2,45.5h-13.1l-6.1-23.3l-6.2,23.3h-13l-12.1-45.5h14.8l5.3,22.8L99.6,295.9z"/>
	<path d="M166.8,341.3l-2.4-6.6h-16l-2.4,6.6H132l17.2-45.5h15l17.2,45.5H166.8z M156.4,312.7l-3.8,10.5h7.6L156.4,312.7z"/>
	<path d="M183.7,341.3v-45.5h22.1c5,0,9.1,1.4,12.3,4.3c3.2,2.9,4.8,7,4.8,12.2c0,3.2-0.7,5.9-2.1,8.3c-1.4,2.4-3.3,4.2-5.7,5.4
		l9.4,15.2h-15.8l-7.6-13h-3.3v13H183.7z M197.9,307.8v9.3h6.1c3.4,0,5.1-1.5,5.1-4.6c0-1.4-0.4-2.6-1.2-3.4s-2.1-1.2-3.9-1.2H197.9
		z"/>
	<path d="M241.2,341.3H227v-45.5h33.7v12.4h-19.5v6.4h17.8v12h-17.8V341.3z"/>
	<path d="M264.5,338.5v-12.7c2,1.3,4.4,2.4,7.1,3.2s5.2,1.3,7.6,1.3c1.2,0,2.2,0,2.9-0.1c0.8-0.1,1.5-0.3,2.1-0.7
		c0.6-0.4,1-0.9,1-1.6c0-0.7-0.2-1.1-0.6-1.4c-0.4-0.3-1-0.6-1.9-0.8l-6.9-1.8c-4.3-1.2-7.5-2.8-9.6-5c-2-2.2-3.1-5.2-3.1-8.9
		c0-4.8,1.8-8.5,5.3-11.1c3.5-2.6,7.9-3.9,13-3.9c5.4,0,10.3,1.1,14.8,3.3v12.7c-4.5-2.9-9.1-4.3-14.1-4.3c-3.2,0-4.8,0.7-4.8,2
		c0,1.1,0.8,1.8,2.5,2.2l6.5,1.8c4.5,1.3,7.8,3.1,10,5.5c2.2,2.3,3.2,5.3,3.2,8.9c0,5.3-2,9.2-6,11.5c-4.1,2.3-8.7,3.5-14,3.5
		c-2.8,0-5.6-0.3-8.3-1C268.7,340.4,266.4,339.5,264.5,338.5z"/>
	<path d="M299.8,308.1v-12.2H341v12.2h-13.4v33.3h-14.4v-33.3H299.8z"/>
	<path d="M371.7,341.3l-2.4-6.6h-16l-2.4,6.6h-14.1l17.2-45.5h15l17.2,45.5H371.7z M361.3,312.7l-3.8,10.5h7.6L361.3,312.7z"/>
	<path d="M388.6,341.3v-45.5h22.1c5,0,9.1,1.4,12.3,4.3c3.2,2.9,4.8,7,4.8,12.2c0,3.2-0.7,5.9-2.1,8.3c-1.4,2.4-3.3,4.2-5.7,5.4
		l9.4,15.2h-15.8l-7.6-13h-3.3v13H388.6z M402.7,307.8v9.3h6.1c3.4,0,5.1-1.5,5.1-4.6c0-1.4-0.4-2.6-1.2-3.4s-2.1-1.2-3.9-1.2H402.7
		z"/>
</g>
</svg>
